<?xml version="1.0" encoding="UTF-8"?>
<!DOCTYPE svg PUBLIC "-//W3C//DTD SVG 1.1//EN" "http://www.w3.org/Graphics/SVG/1.1/DTD/svg11.dtd">
<!-- Creator: CorelDRAW 2019 (64-Bit) -->
<svg xmlns="http://www.w3.org/2000/svg" xml:space="preserve" width="297mm" height="210mm" version="1.1" style="shape-rendering:geometricPrecision; text-rendering:geometricPrecision; image-rendering:optimizeQuality; fill-rule:evenodd; clip-rule:evenodd"
viewBox="0 0 29700 21000"
 xmlns:xlink="http://www.w3.org/1999/xlink"
 xmlns:xodm="http://www.corel.com/coreldraw/odm/2003">
 <defs>
  <style type="text/css">
   <![CDATA[
    .str1 {stroke:#FEFEFE;stroke-width:0.18;stroke-miterlimit:22.9256}
    .str0 {stroke:#74C7B8;stroke-width:20;stroke-miterlimit:22.9256}
    .fil1 {fill:#FEFEFE}
    .fil0 {fill:#74C7B8}
   ]]>
  </style>
 </defs>
 <g id="Слой_x0020_1">
  <metadata id="CorelCorpID_0Corel-Layer"/>
  <path class="fil0 str0" d="M14657.1 10387.68c0,-6.92 0,-14.53 3.89,-23.53 3.89,-8.99 11.68,-19.37 20.33,-26.16 8.65,-6.78 18.16,-9.97 24.13,-11.57 5.97,-1.59 8.39,-1.59 48.79,-1.59 40.39,0 118.77,0 157.69,0 38.93,0 38.41,0 42.13,1.51 3.72,1.51 11.68,4.52 19.29,9.75 7.61,5.22 14.88,12.66 20.5,20.62 5.63,7.96 9.61,16.44 10.87,61.46 1.27,45.03 -0.18,126.61 -1.24,168.34 -1.06,41.74 -1.74,43.65 -3.78,49.4 -2.05,5.75 -5.46,15.35 -12.7,22.53 -7.25,7.19 -18.32,11.96 -27.75,14.34 -9.43,2.39 -17.21,2.39 -58.74,2.39 -41.52,0 -116.78,0 -154.75,0 -37.98,0 -38.67,0 -42.56,-1.43 -3.89,-1.44 -10.99,-4.3 -17.21,-9.11 -6.23,-4.81 -11.6,-11.56 -16.27,-19.34 -4.67,-7.79 -8.65,-16.61 -10.64,-22.41 -1.98,-5.79 -1.98,-8.56 -1.98,-44.03 0,-35.46 0,-103.63 0,-140.82 0,-37.2 0,-43.43 0,-50.35z"/>
  <path class="fil1 str1" d="M14711.78 10446.7c0.42,-1.49 1.41,-3.57 8.85,-4.54 7.44,-0.97 21.32,-0.84 29,-0.76 7.68,0.09 9.15,0.13 12.2,4.41 3.05,4.29 7.67,12.81 12.8,21.87 5.13,9.06 10.75,18.66 14.58,24.14 3.82,5.48 5.86,6.83 8,6.89 2.14,0.07 4.39,-1.16 5.82,-2.89 1.42,-1.74 2.03,-3.99 2.4,-6.65 0.36,-2.66 0.49,-5.73 0.62,-10.23 0.13,-4.49 0.26,-10.42 -0.02,-14.94 -0.28,-4.52 -0.97,-7.63 -1.71,-9.8 -0.73,-2.16 -1.51,-3.37 -3.54,-4.51 -2.04,-1.15 -5.32,-2.23 -7.25,-3.62 -1.92,-1.38 -2.49,-3.07 -2.25,-4.43 0.24,-1.36 1.28,-2.4 10.66,-3.4 9.39,-0.99 27.12,-1.94 37.48,-1.27 10.36,0.67 13.34,2.96 14.02,12.02 0.67,9.06 -0.98,24.89 -1.22,34.52 -0.23,9.63 0.93,13.06 2.08,15.03 1.15,1.97 2.27,2.48 5.82,0.2 3.54,-2.28 9.51,-7.34 15.55,-16.33 6.03,-9 12.13,-21.93 15.61,-29.52 3.48,-7.6 4.35,-9.84 13.04,-11.03 8.69,-1.19 25.22,-1.32 34.56,-0.83 9.34,0.5 11.5,1.63 12.48,3.75 0.97,2.12 0.75,5.23 -4.05,14.36 -4.8,9.12 -14.18,24.26 -20.28,33.23 -6.1,8.98 -8.91,11.79 -10.73,14.62 -1.81,2.84 -2.64,5.69 2.51,12.4 5.15,6.7 16.26,17.25 22.75,25.04 6.49,7.78 8.35,12.8 9.13,16.43 0.78,3.64 0.47,5.89 -0.76,7.14 -1.23,1.25 -3.39,1.51 -12.33,1.84 -8.93,0.32 -24.63,0.71 -33.56,0.34 -8.93,-0.36 -11.09,-1.49 -14.68,-4.95 -3.59,-3.46 -8.61,-9.25 -12.57,-13.56 -3.96,-4.3 -6.85,-7.11 -9.02,-8.82 -2.16,-1.71 -3.59,-2.31 -5.43,-2.34 -1.83,-0.02 -4.08,0.54 -5.62,3.51 -1.53,2.96 -2.35,8.32 -2.87,12.76 -0.52,4.43 -0.74,7.93 -6.02,9.9 -5.27,1.97 -15.61,2.4 -26.16,1.45 -10.56,-0.95 -21.33,-3.29 -31.34,-9.04 -10.01,-5.75 -19.27,-14.92 -29.04,-26.95 -9.78,-12.02 -20.07,-26.9 -28.29,-40.52 -8.22,-13.63 -14.36,-26 -17.56,-32.72 -3.2,-6.73 -3.46,-7.81 -3.68,-8.8 -0.21,-1 -0.39,-1.91 0.02,-3.4z"/>
 </g>
</svg>
